name C:\Users\u0101727\Documents\MyRepositories\upper-imu-dc\Results\main_tracking\Case_21\kinematics.mot
datacolumns 10
datarows 33
range 3.45000000 3.77000000
endheader 
time	clav_prot	clav_elev	scapula_abduction	scapula_elevation	scapula_upward_rot	scapula_winging	plane_elv	shoulder_elv	axial_rot	
          3.45000000	        -45.50074443	         11.52181122	         -3.76441118	         -0.38003510	         81.39054160	        -13.56820056	         39.36252745	         94.11842362	         -9.78940793	
          3.46000000	        -45.49784884	         11.52026411	         -3.78354418	         -0.38427713	         81.35897750	        -13.57102430	         39.44994603	         94.11515272	         -9.57035780	
          3.47000000	        -45.49548544	         11.52248545	         -3.80474732	         -0.38605047	         81.32727037	        -13.57502226	         39.53874218	         94.10572925	         -9.32710827	
          3.48000000	        -45.49273987	         11.52743078	         -3.82488486	         -0.38579272	         81.29711120	        -13.57907014	         39.62454808	         94.08965350	         -9.08383066	
          3.49000000	        -45.48859637	         11.53423786	         -3.84189903	         -0.38398019	         81.26864469	        -13.58226405	         39.70439671	         94.06780270	         -8.85647044	
          3.50000000	        -45.48193105	         11.54213459	         -3.85444769	         -0.38114190	         81.24088959	        -13.58382724	         39.77643526	         94.04208172	         -8.65388531	
          3.51000000	        -45.47155017	         11.55035511	         -3.86146435	         -0.37785076	         81.21235964	        -13.58301817	         39.83946903	         94.01490350	         -8.48031394	
          3.52000000	        -45.45631816	         11.55812776	         -3.86194535	         -0.37468284	         81.18161096	        -13.57912845	         39.89264336	         93.98868057	         -8.33758246	
          3.53000000	        -45.43537807	         11.56472876	         -3.85507594	         -0.37216406	         81.14757574	        -13.57159313	         39.93541275	         93.96542932	         -8.22624897	
          3.54000000	        -45.40840833	         11.56954836	         -3.84057915	         -0.37073400	         81.10969145	        -13.56016115	         39.96773727	         93.94651158	         -8.14582132	
          3.55000000	        -45.37581943	         11.57211575	         -3.81904281	         -0.37074505	         81.06791372	        -13.54503297	         39.99030982	         93.93250280	         -8.09470230	
          3.56000000	        -45.33880328	         11.57207429	         -3.79201861	         -0.37248699	         81.02268714	        -13.52689144	         40.00462344	         93.92318132	         -8.07040948	
          3.57000000	        -45.29919979	         11.56914768	         -3.76183044	         -0.37620463	         80.97489264	        -13.50680775	         40.01279426	         93.91764161	         -8.07017527	
          3.58000000	        -45.25921019	         11.56313422	         -3.73116680	         -0.38208820	         80.92575178	        -13.48605539	         40.01719086	         93.91452468	         -8.09166597	
          3.59000000	        -45.22103385	         11.55393861	         -3.70259946	         -0.39023802	         80.87667320	        -13.46589103	         40.01999887	         93.91232707	         -8.13347342	
          3.60000000	        -45.18652304	         11.54161947	         -3.67816144	         -0.40062317	         80.82906617	        -13.44735899	         40.02284996	         93.90971117	         -8.19521417	
          3.61000000	        -45.15693919	         11.52642263	         -3.65907290	         -0.41305562	         80.78417760	        -13.43116080	         40.02659879	         93.90572346	         -8.27729260	
          3.62000000	        -45.13286155	         11.50878677	         -3.64566812	         -0.42718898	         80.74298947	        -13.41761445	         40.03129121	         93.89986500	         -8.38040705	
          3.63000000	        -45.11424970	         11.48933020	         -3.63754323	         -0.44253861	         80.70615880	        -13.40670716	         40.03633703	         93.89203509	         -8.50476462	
          3.64000000	        -45.10061186	         11.46883117	         -3.63388049	         -0.45851506	         80.67395722	        -13.39821749	         40.04084942	         93.88242060	         -8.64900729	
          3.65000000	        -45.09120597	         11.44820057	         -3.63383631	         -0.47446683	         80.64619707	        -13.39185867	         40.04405268	         93.87139527	         -8.80908304	
          3.66000000	        -45.08521278	         11.42843331	         -3.63686770	         -0.48973405	         80.62216812	        -13.38739549	         40.04564560	         93.85945415	         -8.97744974	
          3.67000000	        -45.08185538	         11.41052659	         -3.64292528	         -0.50371522	         80.60061790	        -13.38471017	         40.04604739	         93.84717599	         -9.14293630	
          3.68000000	        -45.08046854	         11.39536548	         -3.65249375	         -0.51594375	         80.57980766	        -13.38381492	         40.04649162	         93.83518556	         -9.29145742	
          3.69000000	        -45.08052848	         11.38358724	         -3.66647260	         -0.52616356	         80.55768082	        -13.38481530	         40.04893770	         93.82407397	         -9.40770467	
          3.70000000	        -45.08164488	         11.37544322	         -3.68588241	         -0.53438830	         80.53217332	        -13.38782521	         40.05576789	         93.81424196	         -9.47781544	
          3.71000000	        -45.08351698	         11.37069200	         -3.71143568	         -0.54092525	         80.50163224	        -13.39284767	         40.06930186	         93.80567831	         -9.49260513	
          3.72000000	        -45.08587905	         11.36858193	         -3.74314352	         -0.54634248	         80.46519731	        -13.39967409	         40.09129887	         93.79776064	         -9.45028649	
          3.73000000	        -45.08846731	         11.36797938	         -3.78017419	         -0.55136423	         80.42295763	        -13.40786546	         40.12266990	         93.78919893	         -9.35741814	
          3.74000000	        -45.09100617	         11.36764490	         -3.82103044	         -0.55670205	         80.37579353	        -13.41682803	         40.16349125	         93.77818998	         -9.22755010	
          3.75000000	        -45.09318488	         11.36659167	         -3.86393934	         -0.56285740	         80.32495530	        -13.42594106	         40.21325095	         93.76276005	         -9.07800937	
          3.76000000	        -45.09460948	         11.36442150	         -3.90729149	         -0.56994954	         80.27151802	        -13.43468161	         40.27120167	         93.74120293	         -8.92583741	
          3.77000000	        -45.09474046	         11.36153165	         -3.94998898	         -0.57762365	         80.21587719	        -13.44270480	         40.33670595	         93.71249054	         -8.78402407	
